# xmcd CD database file
#
# Track frame offsets:
#	150
#	8709
#	31539
#	61366
#	88460
#	106492
#	134267
#	158718
#	185345
#	208398
#	237165
#	250643
#	268920
#	282576
#
# Disc length: 4121 seconds
#
# Revision: 0
# Processed by: cddbd v1.5.2PL0 Copyright (c) Steve Scherf et al.
# Submitted via: CDex 1.82
#
DISCID=c610170e
DTITLE=Renaud Garcia-Fons - Beyond The Double Bass
DYEAR=2013
DGENRE=Jazz
TTITLE0=En mi Barrio
TTITLE1=Aljamiado
TTITLE2=Oriental Bass
TTITLE3=Berimbass
TTITLE4=Entremundo
TTITLE5=La Linea del Sur
TTITLE6=Wadi Rum
TTITLE7=Hommage a Ostad
TTITLE8=Al Camaron
TTITLE9=Palermo Notturno
TTITLE10=Funambule
TTITLE11=Camino de Felicidad
TTITLE12=Bari
TTITLE13=Voyage a Jeyhounabad
EXTD=YEAR: 2013
EXTT0=
EXTT1=
EXTT2=
EXTT3=
EXTT4=
EXTT5=
EXTT6=
EXTT7=
EXTT8=
EXTT9=
EXTT10=
EXTT11=
EXTT12=
EXTT13=
PLAYORDER=
